<svg id="图层_1" data-name="图层 1" xmlns="http://www.w3.org/2000/svg" xmlns:xlink="http://www.w3.org/1999/xlink" viewBox="0 0 53 24"><defs><style>.cls-1{fill:url(#未命名的渐变);}.cls-2{fill:#fba91d;}.cls-3{fill:url(#未命名的渐变_2);}.cls-4{fill:url(#未命名的渐变_3);}.cls-5{fill:url(#未命名的渐变_4);}.cls-6{fill:url(#未命名的渐变_5);}.cls-7{fill:url(#未命名的渐变_6);}.cls-8{fill:url(#未命名的渐变_7);}.cls-9{fill:#d81e45;}.cls-10{fill:#ef4632;}</style><linearGradient id="未命名的渐变" x1="-730.29" y1="868.72" x2="-727.34" y2="871.18" gradientTransform="matrix(2.93, 0, 0, -4.07, 2156.8, 3562.54)" gradientUnits="userSpaceOnUse"><stop offset="0" stop-color="#ed1b23"/><stop offset="0.99" stop-color="#f5841e"/></linearGradient><linearGradient id="未命名的渐变_2" x1="-742.83" y1="869.67" x2="-739.62" y2="872.25" gradientTransform="matrix(3.03, 0, 0, -4.09, 2260.82, 3575.82)" xlink:href="#未命名的渐变"/><linearGradient id="未命名的渐变_3" x1="-802.99" y1="915.9" x2="-800.33" y2="918.05" gradientTransform="matrix(3.63, 0, 0, -4.92, 2922.08, 4513.81)" xlink:href="#未命名的渐变"/><linearGradient id="未命名的渐变_4" x1="-1048.92" y1="1096.45" x2="-1048.29" y2="1096.91" gradientTransform="matrix(19.16, 0, 0, -23.05, 20097.83, 25281.29)" xlink:href="#未命名的渐变"/><linearGradient id="未命名的渐变_5" x1="-805.05" y1="915.22" x2="-802.38" y2="917.37" gradientTransform="matrix(3.64, 0, 0, -4.92, 2945.68, 4513.81)" xlink:href="#未命名的渐变"/><linearGradient id="未命名的渐变_6" x1="-797.13" y1="995.45" x2="-796.03" y2="996.84" gradientTransform="matrix(3.57, 0, 0, -7.56, 2863.53, 7540.34)" xlink:href="#未命名的渐变"/><linearGradient id="未命名的渐变_7" x1="-944.5" y1="1026.59" x2="-943.18" y2="1027.7" gradientTransform="matrix(6.8, 0, 0, -9.52, 6436.55, 9790.11)" xlink:href="#未命名的渐变"/></defs><g id="样品库"><g id="样品库-点新增-打印"><g id="欣和logo_横" data-name="欣和logo/横"><path id="路径" class="cls-1" d="M17.09,22.79A11.46,11.46,0,0,0,19.86,21a.08.08,0,0,0,0-.09,5,5,0,0,0-.34-.59l-1.13-1.54a.1.1,0,0,0-.09,0,.08.08,0,0,0-.05.07v.05A6.2,6.2,0,0,1,17,22.75s0,0,0,0a0,0,0,0,0,0,0A.17.17,0,0,0,17.09,22.79Z"/><path id="路径-2" data-name="路径" class="cls-2" d="M16.33,16,16,15.55l-.32.42v0A5,5,0,0,0,16,22.16,5.05,5.05,0,0,0,16.36,16Z"/><path id="路径-3" data-name="路径" class="cls-3" d="M17.52,11.22A1.59,1.59,0,0,0,16,9.63h0a1.6,1.6,0,0,0-1.23,2.49l1.15,1.56a.12.12,0,0,0,.08,0,.13.13,0,0,0,.09,0l1.15-1.55a1.63,1.63,0,0,0,.28-.91Z"/><path id="路径-4" data-name="路径" class="cls-4" d="M13.71,6.56A1.83,1.83,0,0,0,14,5.48a1.9,1.9,0,0,0-1.81-1.91h0a1.9,1.9,0,0,0-1.61,1.06,1.93,1.93,0,0,0,.14,1.93h0l1.37,1.86a.13.13,0,0,0,.11.05.12.12,0,0,0,.1-.05l1.38-1.86Z"/><path id="路径-5" data-name="路径" class="cls-2" d="M8.1,16a5,5,0,0,0,2.44,7.61.16.16,0,0,0,.15,0,.2.2,0,0,0,.06-.15,5.25,5.25,0,0,1,.48-3v0l.42-.7v0l3.71-5-3-4.07a.16.16,0,0,0-.13-.06.14.14,0,0,0-.12.06Z"/><path id="路径-6" data-name="路径" class="cls-5" d="M6.17,18.87a6,6,0,0,1,.61-2.64,6.36,6.36,0,0,1,.49-.84L11.6,9.53a.06.06,0,0,0,0-.08L10.06,7.39l-.15-.22a2.94,2.94,0,0,1,2.31-4.64h0a2.94,2.94,0,0,1,2.31,4.64l-.15.22L12.85,9.45a.06.06,0,0,0,0,.08l.63.86a.07.07,0,0,0,.06,0,0,0,0,0,0,.05-.05,2.63,2.63,0,0,1,2.34-1.79h.14a2.62,2.62,0,0,1,2.35,1.81.07.07,0,0,0,0,0,.06.06,0,0,0,.06,0l.65-.87a.06.06,0,0,0,0-.08l-1.7-2.28a3,3,0,0,1,1.78-4.58s0,0,0,0a.06.06,0,0,0,0-.07A11.93,11.93,0,1,0,7.69,23.06a.08.08,0,0,0,.08,0,.1.1,0,0,0,0-.09A6.09,6.09,0,0,1,6.17,18.87Z"/><path id="路径-7" data-name="路径" class="cls-2" d="M15.19,22.93a.09.09,0,0,0,0-.06.07.07,0,0,0,0-.06,6,6,0,0,1-1.45-3.94v-.05a.08.08,0,0,0-.06-.08.07.07,0,0,0-.08,0l-1.12,1.5a4.33,4.33,0,0,0-.77,2.47,4.11,4.11,0,0,0,.15,1.1s0,.05.07.05h.36a5,5,0,0,0,2.88-1Z"/><path id="路径-8" data-name="路径" class="cls-6" d="M18,5.48a1.91,1.91,0,0,0,.33,1.08L19.7,8.43a.12.12,0,0,0,.1.05.16.16,0,0,0,.11-.05l1.38-1.87a1.91,1.91,0,0,0,.05-2.08v0L21,4h0a1.89,1.89,0,0,0-1.15-.46h0A1.91,1.91,0,0,0,18,5.48Z"/><path id="路径-9" data-name="路径" class="cls-7" d="M22.11,7.18,22,7.39,20.42,9.45a.09.09,0,0,0,0,.1l3.25,4.37a.08.08,0,0,0,.09,0s0,0,.06-.06A12.46,12.46,0,0,0,24,12a11.87,11.87,0,0,0-1.35-5.51.09.09,0,0,0-.08,0,.09.09,0,0,0-.07.06A2.89,2.89,0,0,1,22.11,7.18Z"/><path id="路径-10" data-name="路径" class="cls-8" d="M20,10.65a.19.19,0,0,0-.15-.08.18.18,0,0,0-.15.08l-3,4,3.53,4.77s.3.42.36.53a.25.25,0,0,0,.15.1.2.2,0,0,0,.16-.07,11.94,11.94,0,0,0,2.59-4.52.17.17,0,0,0,0-.18Z"/><path id="路径-11" data-name="路径" class="cls-9" d="M31.09,12.26A2.17,2.17,0,0,1,30,12.05a2.42,2.42,0,0,1-.67-.52.35.35,0,0,1-.1-.21.31.31,0,0,1,.1-.24l.21-.21a.28.28,0,0,1,.21-.1h0a.35.35,0,0,1,.21.1l.18.15a1.07,1.07,0,0,0,.22.15,1.72,1.72,0,0,0,.29.11,1.23,1.23,0,0,0,.38,0,1.13,1.13,0,0,0,.77-.25.79.79,0,0,0,.29-.63.92.92,0,0,0-.26-.7A3.08,3.08,0,0,0,31,9.19a6.52,6.52,0,0,1-.68-.38,2.48,2.48,0,0,1-.52-.45,1.73,1.73,0,0,1-.34-.57,2,2,0,0,1-.11-.72,1.7,1.7,0,0,1,.13-.67,1.79,1.79,0,0,1,.38-.56,1.9,1.9,0,0,1,.61-.4,2.13,2.13,0,0,1,.79-.15,2.1,2.1,0,0,1,1,.22A2.89,2.89,0,0,1,32.9,6,.28.28,0,0,1,33,6.2a.28.28,0,0,1-.11.22l-.23.24a.33.33,0,0,1-.21.11.36.36,0,0,1-.22-.11,2.55,2.55,0,0,0-.4-.27,1,1,0,0,0-.57-.16,1.07,1.07,0,0,0-.39.07,1.44,1.44,0,0,0-.31.19,1,1,0,0,0-.21.27.78.78,0,0,0-.07.31,1,1,0,0,0,.07.38.8.8,0,0,0,.19.3,1.84,1.84,0,0,0,.34.27,3.44,3.44,0,0,0,.51.25,6.31,6.31,0,0,1,.73.38,2.58,2.58,0,0,1,.54.45,1.66,1.66,0,0,1,.33.56,2.24,2.24,0,0,1,.12.73,1.8,1.8,0,0,1-.16.72,2,2,0,0,1-.44.6,2.39,2.39,0,0,1-.66.42,2,2,0,0,1-.79.15"/><path id="路径-12" data-name="路径" class="cls-9" d="M34,12.16a.31.31,0,0,1-.32-.32V5.61A.31.31,0,0,1,34,5.29h.3a.32.32,0,0,1,.23.09.26.26,0,0,1,.09.23v6.23a.31.31,0,0,1-.1.24.27.27,0,0,1-.23.08Z"/><path id="路径-13" data-name="路径" class="cls-9" d="M36.86,12.16a.31.31,0,0,1-.32-.32V9.31a.72.72,0,0,0-.78-.78h-.69V7.64h.73a1.91,1.91,0,0,1,.68.12,1.51,1.51,0,0,1,.88.88,1.89,1.89,0,0,1,.12.67v2.52a.34.34,0,0,1-.09.24.33.33,0,0,1-.23.09Z"/><path id="形状" class="cls-9" d="M38.4,7.18a.33.33,0,0,1-.25-.08.36.36,0,0,1-.09-.24V6.37a.29.29,0,0,1,.1-.23.34.34,0,0,1,.24-.09h.32a.38.38,0,0,1,.25.09.3.3,0,0,1,.09.24v.49a.3.3,0,0,1-.09.24.33.33,0,0,1-.25.08Zm0,5a.33.33,0,0,1-.25-.08.36.36,0,0,1-.09-.24V8a.36.36,0,0,1,.09-.24.33.33,0,0,1,.25-.08h.32a.33.33,0,0,1,.25.08.32.32,0,0,1,.09.24v3.86a.32.32,0,0,1-.09.24.33.33,0,0,1-.25.08Z"/><path id="路径-14" data-name="路径" class="cls-9" d="M42.67,12.16a.31.31,0,0,1-.32-.32V9.37a1,1,0,0,0-.22-.65,1,1,0,0,0-1.38,0,1,1,0,0,0-.23.65v2.47a.31.31,0,0,1-.08.24.38.38,0,0,1-.23.08h-.3a.26.26,0,0,1-.23-.09.32.32,0,0,1-.09-.23V9.37a1.86,1.86,0,0,1,.14-.7,1.82,1.82,0,0,1,.38-.58,1.8,1.8,0,0,1,.58-.39,2.1,2.1,0,0,1,1.52,0,2,2,0,0,1,.58.39,1.87,1.87,0,0,1,.51,1.27v2.47a.34.34,0,0,1-.09.24.33.33,0,0,1-.23.09Z"/><path id="形状-2" data-name="形状" class="cls-9" d="M50.53,8.45a1.38,1.38,0,0,0-.56.12,1.39,1.39,0,0,0-.45.31,1.24,1.24,0,0,0-.29.46,1.5,1.5,0,0,0,0,1.14,1.24,1.24,0,0,0,.29.46,1.39,1.39,0,0,0,.45.31,1.34,1.34,0,0,0,1.11,0,1.41,1.41,0,0,0,.75-.77,1.6,1.6,0,0,0,0-1.14,1.41,1.41,0,0,0-.75-.77,1.3,1.3,0,0,0-.55-.12m0,3.81a2.39,2.39,0,0,1-.92-.18,2.36,2.36,0,0,1,0-4.34,2.42,2.42,0,0,1,1.83,0,2.23,2.23,0,0,1,.74.51,2.33,2.33,0,0,1,.51.74,2.44,2.44,0,0,1,0,1.84,2.48,2.48,0,0,1-1.25,1.25,2.38,2.38,0,0,1-.91.18"/><path id="路径-15" data-name="路径" class="cls-9" d="M44.18,12.16a.28.28,0,0,1-.23-.09.33.33,0,0,1-.09-.23V5.61a.31.31,0,0,1,.32-.32h.3a.33.33,0,0,1,.23.09.29.29,0,0,1,.09.23v6.23a.36.36,0,0,1-.09.24.29.29,0,0,1-.23.08Z"/><path id="路径-16" data-name="路径" class="cls-9" d="M47,12.16a.36.36,0,0,1-.24-.09.32.32,0,0,1-.08-.23V9.31a.79.79,0,0,0-.21-.57.75.75,0,0,0-.57-.21h-.69V7.64H46a1.91,1.91,0,0,1,.68.12,1.55,1.55,0,0,1,.88.88,1.89,1.89,0,0,1,.12.67v2.52a.34.34,0,0,1-.09.24.33.33,0,0,1-.23.09Z"/><path id="路径-17" data-name="路径" class="cls-10" d="M38.11,19s0-.06-.16-.11a1.51,1.51,0,0,1-.22-.11,2.65,2.65,0,0,1-1.29-1.66,0,0,0,0,0,0,0l0,0A4.47,4.47,0,0,1,36,18.23v0a3,3,0,0,0,1.39,1.37h0a1.63,1.63,0,0,0,.31.11.29.29,0,0,0,.24,0,.35.35,0,0,0,.14-.2l.07-.28a.68.68,0,0,0,0-.21"/><path id="路径-18" data-name="路径" class="cls-10" d="M33.33,16a.27.27,0,0,0,.08-.23v-.28a.27.27,0,0,0-.08-.23.31.31,0,0,0-.23-.08H30.48V14.8a.53.53,0,0,1,.16-.41.53.53,0,0,1,.42-.14h1.47a.9.9,0,0,0,.65-.28c.14-.15.28-.63,0-.63H31.06a1.44,1.44,0,0,0-1.49,1.45v4.72a.35.35,0,0,0,.08.22.32.32,0,0,0,.23.09h.28a.32.32,0,0,0,.23-.09.27.27,0,0,0,.08-.22V16.14h1.21v3.37a.31.31,0,0,0,.09.22.32.32,0,0,0,.23.09h.28a.29.29,0,0,0,.31-.31V16.14h.51a.32.32,0,0,0,.23-.09"/><path id="路径-19" data-name="路径" class="cls-10" d="M36.25,15.9V14.41H37v1.48h0V16a.35.35,0,0,0,.08.22.32.32,0,0,0,.23.09h.28a.32.32,0,0,0,.23-.09.25.25,0,0,0,.08-.22v-1.5a.84.84,0,0,0-.84-.83H34.77V13.2a.25.25,0,0,0-.08-.17.27.27,0,0,0-.22-.08h-.29A.29.29,0,0,0,34,13a.3.3,0,0,0-.08.17v3.17a.28.28,0,0,0,.31.31h.28a.27.27,0,0,0,.23-.08.29.29,0,0,0,.08-.23v0h0V14.41h.73v1.11s0,2.33-1.39,3.12l-.14.08-.16.07-.1,0a.35.35,0,0,0-.2.14.33.33,0,0,0,0,.24l0,.28a.35.35,0,0,0,.14.2.33.33,0,0,0,.24,0,3.3,3.3,0,0,0,2-2.24,5.47,5.47,0,0,0,.31-1.55"/><path id="路径-20" data-name="路径" class="cls-10" d="M43.42,15.41a.32.32,0,0,0-.23-.09H41.63V14.23h1a.83.83,0,0,0,.65-.24c.15-.15.28-.66,0-.66H39.37a.27.27,0,0,0-.22.08.32.32,0,0,0-.09.23v.28a.32.32,0,0,0,.09.23.27.27,0,0,0,.22.08h1.37v1.09H39.32a.27.27,0,0,0-.22.08.27.27,0,0,0-.08.23v.28a.27.27,0,0,0,.08.23.27.27,0,0,0,.22.08h1.42v.2c0,.42-1.29,1.69-1.82,1.81h-.07a.36.36,0,0,0-.18.12.33.33,0,0,0,0,.24l0,.28a.3.3,0,0,0,.12.21l.08,0H39A3.9,3.9,0,0,0,40.74,18v1.53a.29.29,0,0,0,.07.22.33.33,0,0,0,.23.09h.29a.31.31,0,0,0,.22-.09.27.27,0,0,0,.08-.22v-3.3H43.2a.3.3,0,0,0,.23-.08.36.36,0,0,0,.08-.23v-.29a.35.35,0,0,0-.08-.22"/><path id="形状-3" data-name="形状" class="cls-10" d="M46.81,18.2a.67.67,0,0,1-.18.47.59.59,0,0,1-.47.19h-.68a.62.62,0,0,1-.65-.66V15.06A.61.61,0,0,1,45,14.6a.59.59,0,0,1,.47-.19h.68a.62.62,0,0,1,.65.65Zm.75-3.79a1.39,1.39,0,0,0-.32-.48,1.31,1.31,0,0,0-.48-.32,1.53,1.53,0,0,0-.6-.12h-.68a1.53,1.53,0,0,0-.6.12,1.31,1.31,0,0,0-.48.32,1.43,1.43,0,0,0-.32.49,3.5,3.5,0,0,0-.12.63v3.18a1.58,1.58,0,0,0,.12.61,1.43,1.43,0,0,0,.32.49,1.42,1.42,0,0,0,.48.31,1.53,1.53,0,0,0,.6.12h.68a1.77,1.77,0,0,0,.6-.11,1.31,1.31,0,0,0,.48-.32,1.38,1.38,0,0,0,.32-.5,1.68,1.68,0,0,0,.12-.63V15a1.58,1.58,0,0,0-.12-.61"/><path id="路径-21" data-name="路径" class="cls-10" d="M43.33,18.28h0a4,4,0,0,1-1.27-1.44.05.05,0,0,0,0,0s0,0,0,0v1.42h0a5.54,5.54,0,0,0,.9.77l0,0h0l.11,0h.07a.38.38,0,0,0,.19-.16l.12-.21a.29.29,0,0,0,0-.24.32.32,0,0,0-.15-.19"/></g></g></g></svg>