<?xml version="1.0" encoding="UTF-8" standalone="no"?>
<svg style="enable-background:new 0 0 255 125" xmlns="http://www.w3.org/2000/svg" xml:space="preserve" height="65" width="132.5" version="1.1" y="0px" x="0px" xmlns:xlink="http://www.w3.org/1999/xlink" viewBox="0 0 255 125">
<style type="text/css">
	.st0{fill:url(#SVGID_1_);}
	.st1{fill:#FAA81E;}
	.st2{fill:url(#SVGID_2_);}
	.st3{fill:url(#SVGID_3_);}
	.st4{fill:url(#SVGID_4_);}
	.st5{fill:url(#SVGID_5_);}
	.st6{fill:url(#SVGID_6_);}
	.st7{fill:url(#SVGID_7_);}
	.st8{fill:#D71F45;}
	.st9{fill:#EE4632;}
</style>
<linearGradient id="SVGID_1_" y2="736.11" gradientUnits="userSpaceOnUse" x2="84.354" gradientTransform="translate(50 -661)" y1="783.57" x1="4.7336">
	<stop stop-color="#EC1C24" offset="0"/>
	<stop stop-color="#F4821F" offset=".99"/>
</linearGradient>
<path class="st0" d="m82.1 113.9c4.8-2.2 9.2-5.1 13.2-8.5 0.1-0.1 0.2-0.3 0.1-0.4-0.5-1-1-1.9-1.6-2.8l-5.4-7.3c-0.1-0.2-0.3-0.2-0.5-0.1-0.1 0.1-0.2 0.2-0.2 0.3v0.2c0.1 6.7-2.1 13.1-6.2 18.4-0.1 0.1-0.1 0.2 0 0.3l0.1 0.1c0.2 0 0.4-0.1 0.5-0.2z"/>
<path class="st1" d="m78.5 81.6l-1.5-2.1-1.5 2-0.1 0.1c-6.2 9-5.6 21 1.6 29.3 7.1-8.2 7.8-20.2 1.7-29.2l-0.2-0.1z"/>
<linearGradient id="SVGID_2_" y2="698.72" gradientUnits="userSpaceOnUse" x2="65.427" gradientTransform="translate(50 -661)" y1="749" x1="-18.923">
	<stop stop-color="#EC1C24" offset="0"/>
	<stop stop-color="#F4821F" offset=".99"/>
</linearGradient>
<path class="st2" d="m84.2 59c0-4-3.2-7.4-7.2-7.6h-0.1c-4.2 0.2-7.4 3.8-7.2 8 0.1 1.4 0.5 2.7 1.3 3.9l5.5 7.4c0.2 0.2 0.5 0.3 0.7 0.1l0.1-0.1 5.5-7.3c0.9-1.4 1.4-2.9 1.4-4.4z"/>
<linearGradient id="SVGID_3_" y2="670.93" gradientUnits="userSpaceOnUse" x2="48.865" gradientTransform="translate(50 -661)" y1="721.21" x1="-35.485">
	<stop stop-color="#EC1C24" offset="0"/>
	<stop stop-color="#F4821F" offset=".99"/>
</linearGradient>
<path class="st3" d="m66 36.8c2.8-4.2 1.8-9.8-2.4-12.6-1.4-0.9-3-1.5-4.6-1.6h-0.1c-5 0.3-8.9 4.6-8.6 9.6 0.1 1.6 0.6 3.2 1.6 4.6v0.1l6.5 8.8c0.2 0.3 0.6 0.3 0.8 0.2 0.1 0 0.1-0.1 0.2-0.2l6.6-8.9z"/>
<path class="st1" d="m39.3 81.7c-7.5 10.8-4.8 25.7 6 33.3 1.7 1.2 3.6 2.2 5.6 2.9 0.4 0.1 0.8 0 1-0.4 0-0.1 0.1-0.3 0-0.4-0.7-4.9 0.1-9.9 2.3-14.4v-0.1l2-3.4v-0.1l17.7-23.7-14.4-19.3c-0.2-0.3-0.7-0.4-1-0.2-0.1 0-0.1 0.1-0.2 0.2l-19 25.6z"/>
<linearGradient id="SVGID_4_" y2="682.51" gradientUnits="userSpaceOnUse" x2="55.473" gradientTransform="translate(50 -661)" y1="732.69" x1="-28.707">
	<stop stop-color="#EC1C24" offset="0"/>
	<stop stop-color="#F4821F" offset=".99"/>
</linearGradient>
<path class="st4" d="m30.1 95.3c0-4.4 1-8.6 2.9-12.6 0.7-1.4 1.5-2.7 2.3-4l20.7-27.7c0.1-0.1 0.1-0.3 0-0.4l-7.3-9.8-0.7-1c-4.5-6.3-3-15 3.3-19.5 2.2-1.6 4.9-2.5 7.7-2.6h0.1c7.6 0.3 13.7 6.7 13.4 14.4-0.1 2.7-1 5.4-2.6 7.7l-0.7 1-7.3 9.8c-0.1 0.1-0.1 0.3 0 0.4l3 4.1c0.1 0.1 0.3 0.2 0.4 0.1l0.1-0.1c1.6-4.9 6-8.2 11.1-8.5h0.7c5.1 0.3 9.6 3.7 11.2 8.6 0.1 0.2 0.2 0.3 0.4 0.2 0.1 0 0.1-0.1 0.1-0.1l3.1-4.1c0.1-0.1 0.1-0.3 0-0.4l-8.1-10.9c-4.5-6.3-2.9-15.1 3.4-19.5 1.5-1.1 3.3-1.8 5.1-2.2 0.2 0 0.3-0.2 0.2-0.4 0-0.1-0.1-0.1-0.1-0.2-13-10.1-29.7-13.9-45.8-10.6-22.1 4.4-39.5 21.6-44 43.7-5.7 27.1 8.9 54.3 34.6 64.6 0.2 0.1 0.3 0 0.4-0.2 0-0.1 0-0.2-0.1-0.3-4.8-5.3-7.5-12.3-7.5-19.5z"/>
<path class="st1" d="m73.1 114.6c0.2-0.1 0.2-0.4 0.1-0.5-4.5-5.2-6.9-11.9-6.9-18.7v-0.3c0-0.2-0.2-0.4-0.4-0.4-0.1 0-0.2 0.1-0.3 0.2l-5.3 7.1c-3.5 4.9-4.6 11.1-3 16.9 0 0.2 0.2 0.3 0.3 0.3h1.3 0.5c4.9-0.1 9.7-1.7 13.7-4.6z"/>
<linearGradient id="SVGID_5_" y2="686.78" gradientUnits="userSpaceOnUse" x2="58.312" gradientTransform="translate(50 -661)" y1="737.06" x1="-26.038">
	<stop stop-color="#EC1C24" offset="0"/>
	<stop stop-color="#F4821F" offset=".99"/>
</linearGradient>
<path class="st5" d="m86.3 31.7c0 1.8 0.5 3.6 1.6 5.1l6.6 8.9c0.2 0.3 0.6 0.3 0.8 0.2 0.1 0 0.1-0.1 0.2-0.2l6.6-8.9c2-3 2.1-6.8 0.2-9.9v-0.1c-0.5-0.7-1.1-1.3-1.7-2l-0.1-0.1c-1.5-1.3-3.4-2.1-5.5-2.2h-0.1c-4.8 0.4-8.6 4.4-8.6 9.2z"/>
<linearGradient id="SVGID_6_" y2="708.88" gradientUnits="userSpaceOnUse" x2="71.412" gradientTransform="translate(50 -661)" y1="758.94" x1="-12.578">
	<stop stop-color="#EC1C24" offset="0"/>
	<stop stop-color="#F4821F" offset=".99"/>
</linearGradient>
<path class="st6" d="m106 39.8l-0.8 1-7.3 9.8c-0.1 0.1-0.1 0.3 0 0.5l15.5 20.8c0.1 0.2 0.4 0.2 0.6 0.1 0.1-0.1 0.1-0.2 0.2-0.3 2-12.1 0-24.5-5.7-35.3-0.1-0.2-0.3-0.3-0.5-0.2-0.1 0-0.2 0.1-0.2 0.2-0.4 1.2-1 2.3-1.8 3.4z"/>
<linearGradient id="SVGID_7_" y2="720.81" gradientUnits="userSpaceOnUse" x2="78.463" gradientTransform="translate(50 -661)" y1="770.94" x1="-5.6374">
	<stop stop-color="#EC1C24" offset="0"/>
	<stop stop-color="#F4821F" offset=".99"/>
</linearGradient>
<path class="st7" d="m95.7 56.3c-0.3-0.4-0.9-0.5-1.3-0.2l-0.2 0.2-14.1 19.1 16.8 22.7s1.4 2 1.7 2.5c0.3 0.4 0.8 0.6 1.2 0.3 0.1 0 0.1-0.1 0.2-0.2 5.6-6.2 9.8-13.5 12.3-21.5 0.1-0.3 0-0.6-0.2-0.9l-16.4-22z"/>
<path class="st8" d="m148.8 63.9c-1.7 0.1-3.5-0.3-5.1-1-1.2-0.6-2.3-1.5-3.2-2.5-0.3-0.3-0.4-0.6-0.5-1 0-0.4 0.1-0.8 0.5-1.1l1-1c0.3-0.3 0.6-0.4 1-0.5h0.1c0.4 0 0.7 0.2 1 0.5l0.9 0.7c0.3 0.3 0.7 0.5 1.1 0.7s0.9 0.4 1.4 0.5c0.6 0.1 1.2 0.2 1.8 0.2 1.3 0.1 2.6-0.4 3.6-1.2 0.9-0.7 1.4-1.8 1.4-3 0.1-1.2-0.4-2.4-1.3-3.3-1.2-1.1-2.6-2-4.1-2.6-1.1-0.5-2.2-1.1-3.2-1.8-0.9-0.6-1.8-1.3-2.5-2.1s-1.2-1.7-1.6-2.7c-0.4-1.1-0.6-2.3-0.5-3.5 0-1.1 0.2-2.2 0.6-3.1 0.4-1 1-1.9 1.8-2.7s1.8-1.4 2.9-1.9c2.7-1.1 5.8-0.9 8.4 0.3 1.1 0.6 2.1 1.3 3.1 2.2 0.6 0.4 0.7 1.3 0.3 1.9l-0.3 0.3-1.1 1.1c-0.3 0.3-0.6 0.5-1 0.5s-0.8-0.2-1.1-0.5c-0.6-0.5-1.2-0.9-1.9-1.3-0.8-0.5-1.8-0.7-2.7-0.7-0.6 0-1.3 0.1-1.9 0.3-0.5 0.2-1 0.5-1.5 0.9-0.4 0.3-0.8 0.8-1 1.3s-0.3 1-0.3 1.5c0 0.6 0.1 1.2 0.3 1.8 0.2 0.5 0.5 1 0.9 1.4 0.5 0.5 1 0.9 1.6 1.3 0.8 0.5 1.6 0.9 2.5 1.2 1.2 0.5 2.3 1.1 3.5 1.8 1 0.6 1.8 1.3 2.6 2.1 0.7 0.8 1.2 1.7 1.6 2.7 0.4 1.1 0.6 2.3 0.5 3.5 0 1.2-0.3 2.4-0.8 3.4-0.5 1.1-1.2 2-2.1 2.8s-2 1.5-3.1 2c-1.2 0.5-2.5 0.7-3.8 0.7"/>
<path class="st8" d="m162.8 63.4c-0.8 0.1-1.5-0.5-1.5-1.3v-0.2-29.6c-0.1-0.8 0.5-1.5 1.3-1.5h0.2 1.4c0.8-0.1 1.5 0.5 1.5 1.3v0.3 29.6c0 0.4-0.2 0.8-0.5 1.1s-0.7 0.4-1.1 0.4l-1.3-0.1z"/>
<path class="st8" d="m176.2 63.4c-0.8 0.1-1.5-0.5-1.5-1.3v-0.2-12c0.1-1-0.3-2-1-2.7s-1.7-1.1-2.7-1h-3.3v-4.2h3.5c1.1 0 2.2 0.2 3.2 0.6 0.9 0.4 1.8 0.9 2.5 1.6s1.3 1.6 1.6 2.5c0.4 1 0.6 2.1 0.6 3.2v12c0.1 0.8-0.5 1.5-1.3 1.5h-0.2-1.4z"/>
<path class="st8" d="m183.5 39.8c-0.8 0.1-1.5-0.5-1.5-1.3v-0.2-2.4c0-0.8 0.6-1.4 1.4-1.5h0.2 1.4c0.8-0.1 1.5 0.5 1.5 1.3v0.3 2.4c0.1 0.8-0.5 1.5-1.3 1.5h-0.2l-1.5-0.1zm0 23.7c-0.8 0.1-1.5-0.5-1.5-1.3v-0.2-18.4c-0.1-0.8 0.5-1.5 1.3-1.5h0.2 1.4c0.8-0.1 1.5 0.5 1.5 1.3v0.2 18.4c0.1 0.8-0.5 1.5-1.3 1.5h-0.2-1.4z"/>
<path class="st8" d="m204 63.4c-0.8 0.1-1.5-0.5-1.5-1.3v-0.3-11.6c0-1.1-0.4-2.2-1.1-3.1-1.8-1.7-4.7-1.7-6.5 0-0.7 0.9-1.1 1.9-1.1 3.1v11.8c0.1 0.8-0.5 1.5-1.3 1.5h-0.2-1.4c-0.8 0.1-1.5-0.5-1.5-1.3v-0.2-11.8c0-1.1 0.2-2.2 0.6-3.3 0.8-2.1 2.5-3.7 4.6-4.6 2.3-0.9 4.9-0.9 7.2 0 3.2 1.3 5.2 4.5 5.2 7.9v11.8c0.1 0.8-0.5 1.5-1.3 1.5h-0.2l-1.5-0.1z"/>
<path class="st8" d="m241.4 45.8c-0.9 0-1.8 0.2-2.7 0.5-0.8 0.4-1.5 0.9-2.1 1.5s-1.1 1.4-1.4 2.2c-0.7 1.7-0.7 3.7 0 5.4 0.3 0.8 0.8 1.6 1.4 2.2s1.3 1.1 2.1 1.5c1.7 0.7 3.6 0.7 5.3 0 0.8-0.4 1.5-0.9 2.1-1.5s1.1-1.4 1.4-2.2c0.7-1.7 0.7-3.7 0-5.4-0.3-0.8-0.8-1.6-1.4-2.2s-1.3-1.1-2.1-1.5c-0.8-0.3-1.7-0.5-2.6-0.5m0 18.1c-1.5 0-3-0.3-4.3-0.9-2.7-1.1-4.8-3.3-5.9-5.9-1.2-2.8-1.2-5.9 0-8.7 1.1-2.7 3.3-4.8 5.9-5.9 2.8-1.2 5.9-1.2 8.7 0 2.7 1.1 4.8 3.3 5.9 5.9 1.2 2.8 1.2 5.9 0 8.7-1.1 2.7-3.3 4.8-5.9 5.9-1.4 0.6-2.9 0.9-4.4 0.9"/>
<path class="st8" d="m211.1 63.4c-0.8 0.1-1.5-0.5-1.5-1.3v-0.2-29.6c-0.1-0.8 0.5-1.5 1.3-1.5h0.2 1.4c0.8-0.1 1.5 0.5 1.5 1.3v0.3 29.6c0.1 0.8-0.5 1.5-1.3 1.5h-0.3l-1.3-0.1z"/>
<path class="st8" d="m224.7 63.4c-0.8 0.1-1.5-0.5-1.5-1.3v-0.2-12c0.1-1-0.3-2-1-2.7s-1.7-1.1-2.7-1h-3.3v-4.2h3.5c1.1 0 2.2 0.2 3.2 0.6 0.9 0.4 1.8 0.9 2.5 1.6s1.3 1.6 1.6 2.5c0.4 1 0.6 2.1 0.6 3.2v12c0.1 0.8-0.5 1.5-1.3 1.5h-0.3-1.3z"/>
<path class="st9" d="m182.2 96.1c-0.1-0.2-0.2-0.3-0.8-0.5-0.4-0.1-0.7-0.3-1.1-0.5-3.8-2.1-4.8-4.5-6.1-7.9 0-0.1-0.1-0.1-0.1-0.1-0.1 0-0.1 0.1-0.1 0.1-0.5 1.8-1.1 3.5-2 5.1v0.1c1.4 2.8 3.7 5.1 6.6 6.5 0.5 0.2 1 0.4 1.5 0.5 0.4 0.1 0.8 0.1 1.1-0.1s0.6-0.6 0.7-0.9l0.3-1.3c0.2-0.7 0.1-0.8 0-1"/>
<path class="st9" d="m159.5 81.9c0.3-0.3 0.4-0.7 0.4-1.1v-1.4c0.1-0.7-0.5-1.4-1.2-1.5h-0.3-12.5v-2c-0.1-1.4 0.9-2.6 2.3-2.6h0.4 7c1.2 0 2.3-0.5 3.1-1.3 0.7-0.7 1.3-3 0.1-3h-10.2c-3.8-0.2-6.9 2.8-7.1 6.5v0.4 22.4c-0.1 0.7 0.5 1.4 1.2 1.5h0.2 1.4c0.8 0.1 1.4-0.5 1.5-1.3v-0.2-16h5.8v16c-0.1 0.8 0.5 1.4 1.3 1.5h0.2 1.4c0.7 0.1 1.4-0.5 1.5-1.2v-0.3-16h2.5c0.3 0 0.7-0.1 1-0.4"/>
<path class="st9" d="m173.4 81.2v-1.9-5.2h3.7v7.3c-0.1 0.7 0.5 1.4 1.2 1.5h0.2 1.4c0.8 0.1 1.4-0.5 1.5-1.3v-0.2-7.1c0-2.2-1.8-3.9-4-3.9h-11v-2c0-0.3-0.2-0.6-0.4-0.8-0.3-0.3-0.7-0.4-1.1-0.4h-1.4c-0.4 0-0.8 0.1-1.1 0.4-0.2 0.2-0.4 0.5-0.4 0.8v15.1c-0.1 0.8 0.5 1.4 1.3 1.5h0.2 1.4c0.8 0.1 1.4-0.5 1.5-1.3v-0.2-9.3h3.5v5.2c0 0.1 0 11.1-6.6 14.9-0.2 0.1-0.4 0.2-0.7 0.4-0.2 0.1-0.5 0.2-0.8 0.3l-0.5 0.2c-0.4 0.1-0.7 0.3-0.9 0.6-0.2 0.4-0.2 0.8-0.2 1.2l0.2 1.3c0.1 0.4 0.3 0.7 0.7 0.9s0.8 0.2 1.2 0.1c4.6-1.6 7.8-5.2 9.7-10.6 0.7-2.5 1.2-5 1.4-7.5"/>
<path class="st9" d="m207.5 78.9c-0.3-0.3-0.7-0.4-1.1-0.4h-7.5v-5.2h4.8c1.2 0.1 2.3-0.4 3.1-1.1 0.7-0.7 1.3-3.1 0.1-3.1h-18.8c-0.7-0.1-1.4 0.5-1.5 1.2v0.3 1.4c-0.1 0.8 0.5 1.4 1.3 1.5h0.2 6.5v5.1h-6.7c-0.7-0.1-1.4 0.5-1.5 1.2v0.2 1.4c-0.1 0.8 0.5 1.4 1.3 1.5h0.2 6.7v0.9c0 2-6.1 8.1-8.7 8.6l-0.3 0.1c-0.3 0.1-0.7 0.3-0.9 0.5-0.2 0.3-0.3 0.7-0.2 1.1l0.2 1.3c0 0.4 0.3 0.8 0.6 1 0.1 0.1 0.2 0.1 0.4 0.1s0.5 0 0.8 0c4-0.7 8.1-5.3 8.1-5.3v7.2c0 0.4 0.1 0.8 0.4 1.1s0.7 0.4 1.1 0.4h1.4c0.8 0.1 1.4-0.5 1.5-1.3v-0.2-15.6h7.5c0.7 0.1 1.4-0.5 1.5-1.2v-0.2-1.4c0-0.5-0.2-0.8-0.5-1.1"/>
<path class="st9" d="m223.7 92.1c0 0.8-0.3 1.6-0.9 2.2s-1.4 0.9-2.2 0.9h-3.2c-1.6 0.1-3-1.1-3.1-2.7v-0.4-14.9c0-0.8 0.3-1.6 0.9-2.2s1.4-0.9 2.2-0.9h3.2c1.6-0.1 3 1.1 3.1 2.7v0.4 14.9zm3.5-18c-0.7-1.7-2.1-3.1-3.8-3.8-0.9-0.4-1.9-0.6-2.9-0.5h-3.2c-1 0-1.9 0.2-2.9 0.5-0.9 0.3-1.6 0.8-2.3 1.5s-1.2 1.5-1.5 2.4c-0.3 1-0.5 2-0.5 3v15.1c0 1 0.2 2 0.5 2.9 0.7 1.7 2.1 3.1 3.8 3.8 0.9 0.4 1.9 0.6 2.9 0.5h3.2c1 0 1.9-0.2 2.9-0.5 0.9-0.3 1.7-0.9 2.3-1.5 0.7-0.7 1.2-1.5 1.5-2.4 0.4-1 0.6-2 0.5-3v-15c0.1-1-0.1-2-0.5-3"/>
<path class="st9" d="m207.1 92.5c-2.5-1.8-4.6-4.1-6.1-6.9 0-0.1-0.1-0.1-0.2-0.1s-0.1 0.1-0.1 0.2v6.8c1.3 1.3 2.7 2.5 4.3 3.6l0.3 0.2c0.2 0.1 0.3 0.1 0.5 0.1h0.3c0.4-0.1 0.7-0.4 0.9-0.7l0.6-1c0.4-0.7 0.2-1.5-0.4-1.9 0 0-0.1 0-0.1-0.1"/>
</svg>
